<mxfile host="Electron" modified="2023-12-15T13:10:36.306Z" agent="Mozilla/5.0 (Windows NT 10.0; Win64; x64) AppleWebKit/537.36 (KHTML, like Gecko) draw.io/22.1.2 Chrome/114.0.5735.289 Electron/25.9.4 Safari/537.36" etag="eQPeqQ_GU65yhVv71S4L" version="22.1.2" type="device">
  <diagram name="Page-1" id="kyjuLQX3oqLytZDtHuIR">
    <mxGraphModel dx="5960" dy="733" grid="1" gridSize="10" guides="1" tooltips="1" connect="1" arrows="1" fold="1" page="1" pageScale="1" pageWidth="4681" pageHeight="3300" math="0" shadow="0">
      <root>
        <mxCell id="0" />
        <mxCell id="1" parent="0" />
        <mxCell id="0eBBz7cHZ5j_ymaUO_Qw-89" value="CONSUMER GROUP" style="rounded=0;whiteSpace=wrap;html=1;sketch=1;hachureGap=4;jiggle=2;curveFitting=1;fontFamily=Architects Daughter;fontSource=https%3A%2F%2Ffonts.googleapis.com%2Fcss%3Ffamily%3DArchitects%2BDaughter;fontSize=20;verticalAlign=top;" parent="1" vertex="1">
          <mxGeometry x="740" y="1480" width="300" height="410" as="geometry" />
        </mxCell>
        <mxCell id="0eBBz7cHZ5j_ymaUO_Qw-4" value="" style="edgeStyle=orthogonalEdgeStyle;rounded=0;sketch=1;hachureGap=4;jiggle=2;curveFitting=1;orthogonalLoop=1;jettySize=auto;html=1;fontFamily=Architects Daughter;fontSource=https%3A%2F%2Ffonts.googleapis.com%2Fcss%3Ffamily%3DArchitects%2BDaughter;fontSize=16;startArrow=classic;startFill=1;" parent="1" source="0eBBz7cHZ5j_ymaUO_Qw-1" target="0eBBz7cHZ5j_ymaUO_Qw-3" edge="1">
          <mxGeometry relative="1" as="geometry" />
        </mxCell>
        <mxCell id="0eBBz7cHZ5j_ymaUO_Qw-9" value="HTTP" style="edgeLabel;html=1;align=center;verticalAlign=middle;resizable=0;points=[];fontSize=20;fontFamily=Architects Daughter;" parent="0eBBz7cHZ5j_ymaUO_Qw-4" vertex="1" connectable="0">
          <mxGeometry x="-0.0671" y="3" relative="1" as="geometry">
            <mxPoint as="offset" />
          </mxGeometry>
        </mxCell>
        <mxCell id="0eBBz7cHZ5j_ymaUO_Qw-1" value="APP" style="rounded=0;whiteSpace=wrap;html=1;sketch=1;hachureGap=4;jiggle=2;curveFitting=1;fontFamily=Architects Daughter;fontSource=https%3A%2F%2Ffonts.googleapis.com%2Fcss%3Ffamily%3DArchitects%2BDaughter;fontSize=20;" parent="1" vertex="1">
          <mxGeometry x="150" y="120" width="120" height="180" as="geometry" />
        </mxCell>
        <mxCell id="0eBBz7cHZ5j_ymaUO_Qw-3" value="APP" style="rounded=0;whiteSpace=wrap;html=1;sketch=1;hachureGap=4;jiggle=2;curveFitting=1;fontFamily=Architects Daughter;fontSource=https%3A%2F%2Ffonts.googleapis.com%2Fcss%3Ffamily%3DArchitects%2BDaughter;fontSize=20;" parent="1" vertex="1">
          <mxGeometry x="480" y="120" width="120" height="180" as="geometry" />
        </mxCell>
        <mxCell id="0eBBz7cHZ5j_ymaUO_Qw-11" style="edgeStyle=orthogonalEdgeStyle;rounded=0;sketch=1;hachureGap=4;jiggle=2;curveFitting=1;orthogonalLoop=1;jettySize=auto;html=1;exitX=1;exitY=0.5;exitDx=0;exitDy=0;fontFamily=Architects Daughter;fontSource=https%3A%2F%2Ffonts.googleapis.com%2Fcss%3Ffamily%3DArchitects%2BDaughter;fontSize=16;" parent="1" source="0eBBz7cHZ5j_ymaUO_Qw-5" target="0eBBz7cHZ5j_ymaUO_Qw-10" edge="1">
          <mxGeometry relative="1" as="geometry" />
        </mxCell>
        <mxCell id="0eBBz7cHZ5j_ymaUO_Qw-13" value="Text" style="edgeLabel;html=1;align=center;verticalAlign=middle;resizable=0;points=[];fontSize=20;fontFamily=Architects Daughter;" parent="0eBBz7cHZ5j_ymaUO_Qw-11" vertex="1" connectable="0">
          <mxGeometry x="-0.1578" y="-1" relative="1" as="geometry">
            <mxPoint as="offset" />
          </mxGeometry>
        </mxCell>
        <mxCell id="0eBBz7cHZ5j_ymaUO_Qw-15" value="PUSH" style="edgeLabel;html=1;align=center;verticalAlign=middle;resizable=0;points=[];fontSize=20;fontFamily=Architects Daughter;" parent="0eBBz7cHZ5j_ymaUO_Qw-11" vertex="1" connectable="0">
          <mxGeometry x="-0.0864" y="-5" relative="1" as="geometry">
            <mxPoint as="offset" />
          </mxGeometry>
        </mxCell>
        <mxCell id="0eBBz7cHZ5j_ymaUO_Qw-5" value="APP&lt;br&gt;PRODUCER&lt;br&gt;SERILIZATION" style="rounded=0;whiteSpace=wrap;html=1;sketch=1;hachureGap=4;jiggle=2;curveFitting=1;fontFamily=Architects Daughter;fontSource=https%3A%2F%2Ffonts.googleapis.com%2Fcss%3Ffamily%3DArchitects%2BDaughter;fontSize=20;" parent="1" vertex="1">
          <mxGeometry x="50" y="375" width="190" height="180" as="geometry" />
        </mxCell>
        <mxCell id="0eBBz7cHZ5j_ymaUO_Qw-7" value="APP&lt;br&gt;CONSUMER&lt;br&gt;DESERILIZATION" style="rounded=0;whiteSpace=wrap;html=1;sketch=1;hachureGap=4;jiggle=2;curveFitting=1;fontFamily=Architects Daughter;fontSource=https%3A%2F%2Ffonts.googleapis.com%2Fcss%3Ffamily%3DArchitects%2BDaughter;fontSize=20;" parent="1" vertex="1">
          <mxGeometry x="620" y="375" width="170" height="180" as="geometry" />
        </mxCell>
        <mxCell id="0eBBz7cHZ5j_ymaUO_Qw-12" style="edgeStyle=orthogonalEdgeStyle;rounded=0;sketch=1;hachureGap=4;jiggle=2;curveFitting=1;orthogonalLoop=1;jettySize=auto;html=1;exitX=1;exitY=0.5;exitDx=0;exitDy=0;fontFamily=Architects Daughter;fontSource=https%3A%2F%2Ffonts.googleapis.com%2Fcss%3Ffamily%3DArchitects%2BDaughter;fontSize=16;" parent="1" source="0eBBz7cHZ5j_ymaUO_Qw-10" target="0eBBz7cHZ5j_ymaUO_Qw-7" edge="1">
          <mxGeometry relative="1" as="geometry" />
        </mxCell>
        <mxCell id="0eBBz7cHZ5j_ymaUO_Qw-14" value="PUSH" style="edgeLabel;html=1;align=center;verticalAlign=middle;resizable=0;points=[];fontSize=20;fontFamily=Architects Daughter;" parent="0eBBz7cHZ5j_ymaUO_Qw-12" vertex="1" connectable="0">
          <mxGeometry x="0.0818" relative="1" as="geometry">
            <mxPoint as="offset" />
          </mxGeometry>
        </mxCell>
        <mxCell id="0eBBz7cHZ5j_ymaUO_Qw-10" value="QUEUE" style="rounded=0;whiteSpace=wrap;html=1;sketch=1;hachureGap=4;jiggle=2;curveFitting=1;fontFamily=Architects Daughter;fontSource=https%3A%2F%2Ffonts.googleapis.com%2Fcss%3Ffamily%3DArchitects%2BDaughter;fontSize=20;" parent="1" vertex="1">
          <mxGeometry x="380" y="380" width="70" height="170" as="geometry" />
        </mxCell>
        <mxCell id="0eBBz7cHZ5j_ymaUO_Qw-16" value="JMS&lt;br&gt;AMQP&lt;br&gt;MQTT&lt;br&gt;WebSocket" style="text;html=1;align=center;verticalAlign=middle;resizable=0;points=[];autosize=1;strokeColor=none;fillColor=none;fontSize=20;fontFamily=Architects Daughter;" parent="1" vertex="1">
          <mxGeometry x="235" y="348" width="130" height="110" as="geometry" />
        </mxCell>
        <mxCell id="0eBBz7cHZ5j_ymaUO_Qw-17" value="RocketMQ&lt;br&gt;ActiveMQ&lt;br&gt;RabbitMQ&lt;br&gt;Kafka" style="text;html=1;align=center;verticalAlign=middle;resizable=0;points=[];autosize=1;strokeColor=none;fillColor=none;fontSize=20;fontFamily=Architects Daughter;" parent="1" vertex="1">
          <mxGeometry x="350" y="268" width="120" height="110" as="geometry" />
        </mxCell>
        <mxCell id="0eBBz7cHZ5j_ymaUO_Qw-19" value="" style="whiteSpace=wrap;html=1;aspect=fixed;sketch=1;hachureGap=4;jiggle=2;curveFitting=1;fontFamily=Architects Daughter;fontSource=https%3A%2F%2Ffonts.googleapis.com%2Fcss%3Ffamily%3DArchitects%2BDaughter;fontSize=20;" parent="1" vertex="1">
          <mxGeometry x="230" y="610" width="340" height="340" as="geometry" />
        </mxCell>
        <mxCell id="0eBBz7cHZ5j_ymaUO_Qw-26" style="edgeStyle=orthogonalEdgeStyle;rounded=0;sketch=1;hachureGap=4;jiggle=2;curveFitting=1;orthogonalLoop=1;jettySize=auto;html=1;exitX=1;exitY=0.5;exitDx=0;exitDy=0;entryX=0;entryY=0.5;entryDx=0;entryDy=0;fontFamily=Architects Daughter;fontSource=https%3A%2F%2Ffonts.googleapis.com%2Fcss%3Ffamily%3DArchitects%2BDaughter;fontSize=16;" parent="1" source="0eBBz7cHZ5j_ymaUO_Qw-20" target="0eBBz7cHZ5j_ymaUO_Qw-25" edge="1">
          <mxGeometry relative="1" as="geometry" />
        </mxCell>
        <mxCell id="0eBBz7cHZ5j_ymaUO_Qw-20" value="QUEUE" style="rounded=0;whiteSpace=wrap;html=1;sketch=1;hachureGap=4;jiggle=2;curveFitting=1;fontFamily=Architects Daughter;fontSource=https%3A%2F%2Ffonts.googleapis.com%2Fcss%3Ffamily%3DArchitects%2BDaughter;fontSize=20;verticalAlign=top;" parent="1" vertex="1">
          <mxGeometry x="280" y="640" width="230" height="60" as="geometry" />
        </mxCell>
        <mxCell id="0eBBz7cHZ5j_ymaUO_Qw-40" value="" style="edgeStyle=orthogonalEdgeStyle;rounded=0;sketch=1;hachureGap=4;jiggle=2;curveFitting=1;orthogonalLoop=1;jettySize=auto;html=1;fontFamily=Architects Daughter;fontSource=https%3A%2F%2Ffonts.googleapis.com%2Fcss%3Ffamily%3DArchitects%2BDaughter;fontSize=16;" parent="1" source="0eBBz7cHZ5j_ymaUO_Qw-21" target="0eBBz7cHZ5j_ymaUO_Qw-39" edge="1">
          <mxGeometry relative="1" as="geometry" />
        </mxCell>
        <mxCell id="0eBBz7cHZ5j_ymaUO_Qw-21" value="TOPIC" style="rounded=0;whiteSpace=wrap;html=1;sketch=1;hachureGap=4;jiggle=2;curveFitting=1;fontFamily=Architects Daughter;fontSource=https%3A%2F%2Ffonts.googleapis.com%2Fcss%3Ffamily%3DArchitects%2BDaughter;fontSize=20;" parent="1" vertex="1">
          <mxGeometry x="280" y="720" width="230" height="60" as="geometry" />
        </mxCell>
        <mxCell id="0eBBz7cHZ5j_ymaUO_Qw-22" value="QUEUE" style="rounded=0;whiteSpace=wrap;html=1;sketch=1;hachureGap=4;jiggle=2;curveFitting=1;fontFamily=Architects Daughter;fontSource=https%3A%2F%2Ffonts.googleapis.com%2Fcss%3Ffamily%3DArchitects%2BDaughter;fontSize=20;" parent="1" vertex="1">
          <mxGeometry x="280" y="810" width="230" height="60" as="geometry" />
        </mxCell>
        <mxCell id="0eBBz7cHZ5j_ymaUO_Qw-24" style="edgeStyle=orthogonalEdgeStyle;rounded=0;sketch=1;hachureGap=4;jiggle=2;curveFitting=1;orthogonalLoop=1;jettySize=auto;html=1;exitX=1;exitY=0.5;exitDx=0;exitDy=0;entryX=0;entryY=0.5;entryDx=0;entryDy=0;fontFamily=Architects Daughter;fontSource=https%3A%2F%2Ffonts.googleapis.com%2Fcss%3Ffamily%3DArchitects%2BDaughter;fontSize=16;" parent="1" source="0eBBz7cHZ5j_ymaUO_Qw-23" target="0eBBz7cHZ5j_ymaUO_Qw-20" edge="1">
          <mxGeometry relative="1" as="geometry" />
        </mxCell>
        <mxCell id="0eBBz7cHZ5j_ymaUO_Qw-23" value="APP" style="rounded=0;whiteSpace=wrap;html=1;sketch=1;hachureGap=4;jiggle=2;curveFitting=1;fontFamily=Architects Daughter;fontSource=https%3A%2F%2Ffonts.googleapis.com%2Fcss%3Ffamily%3DArchitects%2BDaughter;fontSize=20;" parent="1" vertex="1">
          <mxGeometry x="30" y="640" width="120" height="60" as="geometry" />
        </mxCell>
        <mxCell id="0eBBz7cHZ5j_ymaUO_Qw-25" value="APP" style="rounded=0;whiteSpace=wrap;html=1;sketch=1;hachureGap=4;jiggle=2;curveFitting=1;fontFamily=Architects Daughter;fontSource=https%3A%2F%2Ffonts.googleapis.com%2Fcss%3Ffamily%3DArchitects%2BDaughter;fontSize=20;" parent="1" vertex="1">
          <mxGeometry x="640" y="640" width="120" height="60" as="geometry" />
        </mxCell>
        <mxCell id="0eBBz7cHZ5j_ymaUO_Qw-27" value="D" style="rounded=0;whiteSpace=wrap;html=1;sketch=1;hachureGap=4;jiggle=2;curveFitting=1;fontFamily=Architects Daughter;fontSource=https%3A%2F%2Ffonts.googleapis.com%2Fcss%3Ffamily%3DArchitects%2BDaughter;fontSize=20;" parent="1" vertex="1">
          <mxGeometry x="290" y="670" width="30" height="20" as="geometry" />
        </mxCell>
        <mxCell id="0eBBz7cHZ5j_ymaUO_Qw-28" value="D" style="rounded=0;whiteSpace=wrap;html=1;sketch=1;hachureGap=4;jiggle=2;curveFitting=1;fontFamily=Architects Daughter;fontSource=https%3A%2F%2Ffonts.googleapis.com%2Fcss%3Ffamily%3DArchitects%2BDaughter;fontSize=20;" parent="1" vertex="1">
          <mxGeometry x="330" y="670" width="30" height="20" as="geometry" />
        </mxCell>
        <mxCell id="0eBBz7cHZ5j_ymaUO_Qw-29" value="D" style="rounded=0;whiteSpace=wrap;html=1;sketch=1;hachureGap=4;jiggle=2;curveFitting=1;fontFamily=Architects Daughter;fontSource=https%3A%2F%2Ffonts.googleapis.com%2Fcss%3Ffamily%3DArchitects%2BDaughter;fontSize=20;" parent="1" vertex="1">
          <mxGeometry x="370" y="670" width="30" height="20" as="geometry" />
        </mxCell>
        <mxCell id="0eBBz7cHZ5j_ymaUO_Qw-30" value="D" style="rounded=0;whiteSpace=wrap;html=1;sketch=1;hachureGap=4;jiggle=2;curveFitting=1;fontFamily=Architects Daughter;fontSource=https%3A%2F%2Ffonts.googleapis.com%2Fcss%3Ffamily%3DArchitects%2BDaughter;fontSize=20;" parent="1" vertex="1">
          <mxGeometry x="410" y="670" width="30" height="20" as="geometry" />
        </mxCell>
        <mxCell id="0eBBz7cHZ5j_ymaUO_Qw-33" value="FIFO" style="text;html=1;align=center;verticalAlign=middle;resizable=0;points=[];autosize=1;strokeColor=none;fillColor=none;fontSize=20;fontFamily=Architects Daughter;" parent="1" vertex="1">
          <mxGeometry x="365" y="610" width="70" height="40" as="geometry" />
        </mxCell>
        <mxCell id="0eBBz7cHZ5j_ymaUO_Qw-34" value="Ack" style="text;html=1;align=center;verticalAlign=middle;resizable=0;points=[];autosize=1;strokeColor=none;fillColor=none;fontSize=20;fontFamily=Architects Daughter;" parent="1" vertex="1">
          <mxGeometry x="170" y="623" width="60" height="40" as="geometry" />
        </mxCell>
        <mxCell id="0eBBz7cHZ5j_ymaUO_Qw-36" value="Ack" style="text;html=1;align=center;verticalAlign=middle;resizable=0;points=[];autosize=1;strokeColor=none;fillColor=none;fontSize=20;fontFamily=Architects Daughter;" parent="1" vertex="1">
          <mxGeometry x="570" y="613" width="60" height="40" as="geometry" />
        </mxCell>
        <mxCell id="0eBBz7cHZ5j_ymaUO_Qw-38" value="JMS&lt;br&gt;AMQP&lt;br&gt;MQTT&lt;br&gt;WebSocket" style="text;html=1;align=center;verticalAlign=middle;resizable=0;points=[];autosize=1;strokeColor=none;fillColor=none;fontSize=20;fontFamily=Architects Daughter;" parent="1" vertex="1">
          <mxGeometry x="470" y="348" width="130" height="110" as="geometry" />
        </mxCell>
        <mxCell id="0eBBz7cHZ5j_ymaUO_Qw-39" value="APP" style="whiteSpace=wrap;html=1;fontSize=20;fontFamily=Architects Daughter;rounded=0;sketch=1;hachureGap=4;jiggle=2;curveFitting=1;fontSource=https%3A%2F%2Ffonts.googleapis.com%2Fcss%3Ffamily%3DArchitects%2BDaughter;" parent="1" vertex="1">
          <mxGeometry x="645" y="720" width="120" height="60" as="geometry" />
        </mxCell>
        <mxCell id="0eBBz7cHZ5j_ymaUO_Qw-41" value="" style="whiteSpace=wrap;html=1;aspect=fixed;sketch=1;hachureGap=4;jiggle=2;curveFitting=1;fontFamily=Architects Daughter;fontSource=https%3A%2F%2Ffonts.googleapis.com%2Fcss%3Ffamily%3DArchitects%2BDaughter;fontSize=20;" parent="1" vertex="1">
          <mxGeometry x="230" y="1000" width="340" height="340" as="geometry" />
        </mxCell>
        <mxCell id="0eBBz7cHZ5j_ymaUO_Qw-42" value="EXCHANGE" style="rounded=0;whiteSpace=wrap;html=1;sketch=1;hachureGap=4;jiggle=2;curveFitting=1;fontFamily=Architects Daughter;fontSource=https%3A%2F%2Ffonts.googleapis.com%2Fcss%3Ffamily%3DArchitects%2BDaughter;fontSize=20;" parent="1" vertex="1">
          <mxGeometry x="250" y="1040" width="120" height="60" as="geometry" />
        </mxCell>
        <mxCell id="0eBBz7cHZ5j_ymaUO_Qw-45" value="" style="edgeStyle=orthogonalEdgeStyle;rounded=0;sketch=1;hachureGap=4;jiggle=2;curveFitting=1;orthogonalLoop=1;jettySize=auto;html=1;fontFamily=Architects Daughter;fontSource=https%3A%2F%2Ffonts.googleapis.com%2Fcss%3Ffamily%3DArchitects%2BDaughter;fontSize=16;" parent="1" source="0eBBz7cHZ5j_ymaUO_Qw-43" target="0eBBz7cHZ5j_ymaUO_Qw-44" edge="1">
          <mxGeometry relative="1" as="geometry" />
        </mxCell>
        <mxCell id="0eBBz7cHZ5j_ymaUO_Qw-48" style="edgeStyle=orthogonalEdgeStyle;rounded=0;sketch=1;hachureGap=4;jiggle=2;curveFitting=1;orthogonalLoop=1;jettySize=auto;html=1;exitX=0;exitY=0.5;exitDx=0;exitDy=0;fontFamily=Architects Daughter;fontSource=https%3A%2F%2Ffonts.googleapis.com%2Fcss%3Ffamily%3DArchitects%2BDaughter;fontSize=16;" parent="1" source="0eBBz7cHZ5j_ymaUO_Qw-43" target="0eBBz7cHZ5j_ymaUO_Qw-42" edge="1">
          <mxGeometry relative="1" as="geometry" />
        </mxCell>
        <mxCell id="0eBBz7cHZ5j_ymaUO_Qw-43" value="QUEUE" style="rounded=1;whiteSpace=wrap;html=1;sketch=1;hachureGap=4;jiggle=2;curveFitting=1;fontFamily=Architects Daughter;fontSource=https%3A%2F%2Ffonts.googleapis.com%2Fcss%3Ffamily%3DArchitects%2BDaughter;fontSize=20;" parent="1" vertex="1">
          <mxGeometry x="420" y="1040" width="120" height="60" as="geometry" />
        </mxCell>
        <mxCell id="0eBBz7cHZ5j_ymaUO_Qw-44" value="CONSUMER" style="rounded=1;whiteSpace=wrap;html=1;sketch=1;hachureGap=4;jiggle=2;curveFitting=1;fontFamily=Architects Daughter;fontSource=https%3A%2F%2Ffonts.googleapis.com%2Fcss%3Ffamily%3DArchitects%2BDaughter;fontSize=20;" parent="1" vertex="1">
          <mxGeometry x="620" y="1040" width="120" height="60" as="geometry" />
        </mxCell>
        <mxCell id="0eBBz7cHZ5j_ymaUO_Qw-47" style="edgeStyle=orthogonalEdgeStyle;rounded=0;sketch=1;hachureGap=4;jiggle=2;curveFitting=1;orthogonalLoop=1;jettySize=auto;html=1;exitX=1;exitY=0.5;exitDx=0;exitDy=0;entryX=0;entryY=0.5;entryDx=0;entryDy=0;fontFamily=Architects Daughter;fontSource=https%3A%2F%2Ffonts.googleapis.com%2Fcss%3Ffamily%3DArchitects%2BDaughter;fontSize=16;" parent="1" source="0eBBz7cHZ5j_ymaUO_Qw-46" target="0eBBz7cHZ5j_ymaUO_Qw-42" edge="1">
          <mxGeometry relative="1" as="geometry" />
        </mxCell>
        <mxCell id="0eBBz7cHZ5j_ymaUO_Qw-46" value="PRODUCER" style="rounded=0;whiteSpace=wrap;html=1;sketch=1;hachureGap=4;jiggle=2;curveFitting=1;fontFamily=Architects Daughter;fontSource=https%3A%2F%2Ffonts.googleapis.com%2Fcss%3Ffamily%3DArchitects%2BDaughter;fontSize=20;" parent="1" vertex="1">
          <mxGeometry x="20" y="1040" width="120" height="60" as="geometry" />
        </mxCell>
        <mxCell id="0eBBz7cHZ5j_ymaUO_Qw-51" style="edgeStyle=orthogonalEdgeStyle;rounded=0;sketch=1;hachureGap=4;jiggle=2;curveFitting=1;orthogonalLoop=1;jettySize=auto;html=1;exitX=0;exitY=0.5;exitDx=0;exitDy=0;entryX=0.75;entryY=1;entryDx=0;entryDy=0;fontFamily=Architects Daughter;fontSource=https%3A%2F%2Ffonts.googleapis.com%2Fcss%3Ffamily%3DArchitects%2BDaughter;fontSize=16;" parent="1" source="0eBBz7cHZ5j_ymaUO_Qw-49" target="0eBBz7cHZ5j_ymaUO_Qw-42" edge="1">
          <mxGeometry relative="1" as="geometry" />
        </mxCell>
        <mxCell id="0eBBz7cHZ5j_ymaUO_Qw-54" value="" style="edgeStyle=orthogonalEdgeStyle;rounded=0;sketch=1;hachureGap=4;jiggle=2;curveFitting=1;orthogonalLoop=1;jettySize=auto;html=1;fontFamily=Architects Daughter;fontSource=https%3A%2F%2Ffonts.googleapis.com%2Fcss%3Ffamily%3DArchitects%2BDaughter;fontSize=16;" parent="1" source="0eBBz7cHZ5j_ymaUO_Qw-49" target="0eBBz7cHZ5j_ymaUO_Qw-53" edge="1">
          <mxGeometry relative="1" as="geometry" />
        </mxCell>
        <mxCell id="0eBBz7cHZ5j_ymaUO_Qw-49" value="QUEUE" style="rounded=1;whiteSpace=wrap;html=1;sketch=1;hachureGap=4;jiggle=2;curveFitting=1;fontFamily=Architects Daughter;fontSource=https%3A%2F%2Ffonts.googleapis.com%2Fcss%3Ffamily%3DArchitects%2BDaughter;fontSize=20;" parent="1" vertex="1">
          <mxGeometry x="420" y="1120" width="120" height="60" as="geometry" />
        </mxCell>
        <mxCell id="0eBBz7cHZ5j_ymaUO_Qw-56" value="" style="edgeStyle=orthogonalEdgeStyle;rounded=0;sketch=1;hachureGap=4;jiggle=2;curveFitting=1;orthogonalLoop=1;jettySize=auto;html=1;fontFamily=Architects Daughter;fontSource=https%3A%2F%2Ffonts.googleapis.com%2Fcss%3Ffamily%3DArchitects%2BDaughter;fontSize=16;" parent="1" source="0eBBz7cHZ5j_ymaUO_Qw-50" target="0eBBz7cHZ5j_ymaUO_Qw-55" edge="1">
          <mxGeometry relative="1" as="geometry" />
        </mxCell>
        <mxCell id="0eBBz7cHZ5j_ymaUO_Qw-50" value="QUEUE" style="rounded=1;whiteSpace=wrap;html=1;sketch=1;hachureGap=4;jiggle=2;curveFitting=1;fontFamily=Architects Daughter;fontSource=https%3A%2F%2Ffonts.googleapis.com%2Fcss%3Ffamily%3DArchitects%2BDaughter;fontSize=20;" parent="1" vertex="1">
          <mxGeometry x="420" y="1200" width="120" height="60" as="geometry" />
        </mxCell>
        <mxCell id="0eBBz7cHZ5j_ymaUO_Qw-52" style="edgeStyle=orthogonalEdgeStyle;rounded=0;sketch=1;hachureGap=4;jiggle=2;curveFitting=1;orthogonalLoop=1;jettySize=auto;html=1;exitX=0;exitY=0.5;exitDx=0;exitDy=0;entryX=0.444;entryY=1.028;entryDx=0;entryDy=0;entryPerimeter=0;fontFamily=Architects Daughter;fontSource=https%3A%2F%2Ffonts.googleapis.com%2Fcss%3Ffamily%3DArchitects%2BDaughter;fontSize=16;" parent="1" source="0eBBz7cHZ5j_ymaUO_Qw-50" target="0eBBz7cHZ5j_ymaUO_Qw-42" edge="1">
          <mxGeometry relative="1" as="geometry" />
        </mxCell>
        <mxCell id="0eBBz7cHZ5j_ymaUO_Qw-53" value="CONSUMER" style="whiteSpace=wrap;html=1;fontSize=20;fontFamily=Architects Daughter;rounded=1;sketch=1;hachureGap=4;jiggle=2;curveFitting=1;fontSource=https%3A%2F%2Ffonts.googleapis.com%2Fcss%3Ffamily%3DArchitects%2BDaughter;" parent="1" vertex="1">
          <mxGeometry x="620" y="1120" width="120" height="60" as="geometry" />
        </mxCell>
        <mxCell id="0eBBz7cHZ5j_ymaUO_Qw-55" value="CONSUMER" style="whiteSpace=wrap;html=1;fontSize=20;fontFamily=Architects Daughter;rounded=1;sketch=1;hachureGap=4;jiggle=2;curveFitting=1;fontSource=https%3A%2F%2Ffonts.googleapis.com%2Fcss%3Ffamily%3DArchitects%2BDaughter;" parent="1" vertex="1">
          <mxGeometry x="620" y="1200" width="120" height="60" as="geometry" />
        </mxCell>
        <mxCell id="0eBBz7cHZ5j_ymaUO_Qw-57" value="Key&lt;br&gt;Header&lt;br&gt;Message" style="text;html=1;align=center;verticalAlign=middle;resizable=0;points=[];autosize=1;strokeColor=none;fillColor=none;fontSize=20;fontFamily=Architects Daughter;" parent="1" vertex="1">
          <mxGeometry x="140" y="988" width="100" height="90" as="geometry" />
        </mxCell>
        <mxCell id="0eBBz7cHZ5j_ymaUO_Qw-58" value="" style="whiteSpace=wrap;html=1;aspect=fixed;sketch=1;hachureGap=4;jiggle=2;curveFitting=1;fontFamily=Architects Daughter;fontSource=https%3A%2F%2Ffonts.googleapis.com%2Fcss%3Ffamily%3DArchitects%2BDaughter;fontSize=20;" parent="1" vertex="1">
          <mxGeometry x="230" y="1430" width="470" height="470" as="geometry" />
        </mxCell>
        <mxCell id="0eBBz7cHZ5j_ymaUO_Qw-59" value="RabbitMQ" style="text;html=1;align=center;verticalAlign=middle;resizable=0;points=[];autosize=1;strokeColor=none;fillColor=none;fontSize=20;fontFamily=Architects Daughter;" parent="1" vertex="1">
          <mxGeometry x="345" y="953" width="110" height="40" as="geometry" />
        </mxCell>
        <mxCell id="0eBBz7cHZ5j_ymaUO_Qw-60" value="Kafka" style="text;html=1;align=center;verticalAlign=middle;resizable=0;points=[];autosize=1;strokeColor=none;fillColor=none;fontSize=20;fontFamily=Architects Daughter;" parent="1" vertex="1">
          <mxGeometry x="345" y="1360" width="80" height="40" as="geometry" />
        </mxCell>
        <mxCell id="0eBBz7cHZ5j_ymaUO_Qw-63" value="" style="edgeStyle=orthogonalEdgeStyle;rounded=0;sketch=1;hachureGap=4;jiggle=2;curveFitting=1;orthogonalLoop=1;jettySize=auto;html=1;fontFamily=Architects Daughter;fontSource=https%3A%2F%2Ffonts.googleapis.com%2Fcss%3Ffamily%3DArchitects%2BDaughter;fontSize=16;endArrow=none;endFill=0;startArrow=classic;startFill=1;" parent="1" source="0eBBz7cHZ5j_ymaUO_Qw-61" target="0eBBz7cHZ5j_ymaUO_Qw-62" edge="1">
          <mxGeometry relative="1" as="geometry" />
        </mxCell>
        <mxCell id="0eBBz7cHZ5j_ymaUO_Qw-61" value="TOPIC-A" style="rounded=0;whiteSpace=wrap;html=1;sketch=1;hachureGap=4;jiggle=2;curveFitting=1;fontFamily=Architects Daughter;fontSource=https%3A%2F%2Ffonts.googleapis.com%2Fcss%3Ffamily%3DArchitects%2BDaughter;fontSize=20;verticalAlign=top;" parent="1" vertex="1">
          <mxGeometry x="270" y="1470" width="260" height="190" as="geometry" />
        </mxCell>
        <mxCell id="0eBBz7cHZ5j_ymaUO_Qw-62" value="PRODUCER" style="whiteSpace=wrap;html=1;fontSize=20;fontFamily=Architects Daughter;verticalAlign=top;rounded=0;sketch=1;hachureGap=4;jiggle=2;curveFitting=1;fontSource=https%3A%2F%2Ffonts.googleapis.com%2Fcss%3Ffamily%3DArchitects%2BDaughter;" parent="1" vertex="1">
          <mxGeometry x="-20" y="1535" width="120" height="60" as="geometry" />
        </mxCell>
        <mxCell id="0eBBz7cHZ5j_ymaUO_Qw-64" value="TOPIC" style="rounded=0;whiteSpace=wrap;html=1;sketch=1;hachureGap=4;jiggle=2;curveFitting=1;fontFamily=Architects Daughter;fontSource=https%3A%2F%2Ffonts.googleapis.com%2Fcss%3Ffamily%3DArchitects%2BDaughter;fontSize=20;verticalAlign=top;" parent="1" vertex="1">
          <mxGeometry x="270" y="1680" width="260" height="190" as="geometry" />
        </mxCell>
        <mxCell id="0eBBz7cHZ5j_ymaUO_Qw-66" style="edgeStyle=orthogonalEdgeStyle;rounded=0;sketch=1;hachureGap=4;jiggle=2;curveFitting=1;orthogonalLoop=1;jettySize=auto;html=1;exitX=1;exitY=0.5;exitDx=0;exitDy=0;fontFamily=Architects Daughter;fontSource=https%3A%2F%2Ffonts.googleapis.com%2Fcss%3Ffamily%3DArchitects%2BDaughter;fontSize=16;" parent="1" source="0eBBz7cHZ5j_ymaUO_Qw-65" target="0eBBz7cHZ5j_ymaUO_Qw-64" edge="1">
          <mxGeometry relative="1" as="geometry" />
        </mxCell>
        <mxCell id="0eBBz7cHZ5j_ymaUO_Qw-65" value="PRODUCER" style="rounded=0;whiteSpace=wrap;html=1;sketch=1;hachureGap=4;jiggle=2;curveFitting=1;fontFamily=Architects Daughter;fontSource=https%3A%2F%2Ffonts.googleapis.com%2Fcss%3Ffamily%3DArchitects%2BDaughter;fontSize=20;" parent="1" vertex="1">
          <mxGeometry x="-10" y="1745" width="120" height="60" as="geometry" />
        </mxCell>
        <mxCell id="0eBBz7cHZ5j_ymaUO_Qw-67" value="PARTITION" style="rounded=0;whiteSpace=wrap;html=1;sketch=1;hachureGap=4;jiggle=2;curveFitting=1;fontFamily=Architects Daughter;fontSource=https%3A%2F%2Ffonts.googleapis.com%2Fcss%3Ffamily%3DArchitects%2BDaughter;fontSize=20;" parent="1" vertex="1">
          <mxGeometry x="280" y="1520" width="230" height="30" as="geometry" />
        </mxCell>
        <mxCell id="0eBBz7cHZ5j_ymaUO_Qw-69" value="PARTITION" style="rounded=0;whiteSpace=wrap;html=1;sketch=1;hachureGap=4;jiggle=2;curveFitting=1;fontFamily=Architects Daughter;fontSource=https%3A%2F%2Ffonts.googleapis.com%2Fcss%3Ffamily%3DArchitects%2BDaughter;fontSize=20;" parent="1" vertex="1">
          <mxGeometry x="280" y="1565" width="230" height="30" as="geometry" />
        </mxCell>
        <mxCell id="0eBBz7cHZ5j_ymaUO_Qw-70" value="PARTITION" style="rounded=0;whiteSpace=wrap;html=1;sketch=1;hachureGap=4;jiggle=2;curveFitting=1;fontFamily=Architects Daughter;fontSource=https%3A%2F%2Ffonts.googleapis.com%2Fcss%3Ffamily%3DArchitects%2BDaughter;fontSize=20;" parent="1" vertex="1">
          <mxGeometry x="280" y="1610" width="230" height="30" as="geometry" />
        </mxCell>
        <mxCell id="0eBBz7cHZ5j_ymaUO_Qw-71" value="PARTITION" style="rounded=0;whiteSpace=wrap;html=1;sketch=1;hachureGap=4;jiggle=2;curveFitting=1;fontFamily=Architects Daughter;fontSource=https%3A%2F%2Ffonts.googleapis.com%2Fcss%3Ffamily%3DArchitects%2BDaughter;fontSize=20;verticalAlign=top;" parent="1" vertex="1">
          <mxGeometry x="70" y="2000" width="630" height="540" as="geometry" />
        </mxCell>
        <mxCell id="0eBBz7cHZ5j_ymaUO_Qw-75" value="SEGMENT" style="rounded=0;whiteSpace=wrap;html=1;sketch=1;hachureGap=4;jiggle=2;curveFitting=1;fontFamily=Architects Daughter;fontSource=https%3A%2F%2Ffonts.googleapis.com%2Fcss%3Ffamily%3DArchitects%2BDaughter;fontSize=20;verticalAlign=top;" parent="1" vertex="1">
          <mxGeometry x="170" y="2030" width="365" height="100" as="geometry" />
        </mxCell>
        <mxCell id="0eBBz7cHZ5j_ymaUO_Qw-72" value="M" style="rounded=0;whiteSpace=wrap;html=1;sketch=1;hachureGap=4;jiggle=2;curveFitting=1;fontFamily=Architects Daughter;fontSource=https%3A%2F%2Ffonts.googleapis.com%2Fcss%3Ffamily%3DArchitects%2BDaughter;fontSize=20;" parent="1" vertex="1">
          <mxGeometry x="180" y="2080" width="60" height="40" as="geometry" />
        </mxCell>
        <mxCell id="0eBBz7cHZ5j_ymaUO_Qw-73" value="M" style="rounded=0;whiteSpace=wrap;html=1;sketch=1;hachureGap=4;jiggle=2;curveFitting=1;fontFamily=Architects Daughter;fontSource=https%3A%2F%2Ffonts.googleapis.com%2Fcss%3Ffamily%3DArchitects%2BDaughter;fontSize=20;" parent="1" vertex="1">
          <mxGeometry x="250" y="2080" width="60" height="40" as="geometry" />
        </mxCell>
        <mxCell id="0eBBz7cHZ5j_ymaUO_Qw-74" value="M" style="rounded=0;whiteSpace=wrap;html=1;sketch=1;hachureGap=4;jiggle=2;curveFitting=1;fontFamily=Architects Daughter;fontSource=https%3A%2F%2Ffonts.googleapis.com%2Fcss%3Ffamily%3DArchitects%2BDaughter;fontSize=20;" parent="1" vertex="1">
          <mxGeometry x="320" y="2080" width="60" height="40" as="geometry" />
        </mxCell>
        <mxCell id="0eBBz7cHZ5j_ymaUO_Qw-76" value="SEGMENT" style="rounded=0;whiteSpace=wrap;html=1;sketch=1;hachureGap=4;jiggle=2;curveFitting=1;fontFamily=Architects Daughter;fontSource=https%3A%2F%2Ffonts.googleapis.com%2Fcss%3Ffamily%3DArchitects%2BDaughter;fontSize=20;verticalAlign=top;" parent="1" vertex="1">
          <mxGeometry x="170" y="2150" width="365" height="100" as="geometry" />
        </mxCell>
        <mxCell id="0eBBz7cHZ5j_ymaUO_Qw-77" value="SEGMENT" style="rounded=0;whiteSpace=wrap;html=1;sketch=1;hachureGap=4;jiggle=2;curveFitting=1;fontFamily=Architects Daughter;fontSource=https%3A%2F%2Ffonts.googleapis.com%2Fcss%3Ffamily%3DArchitects%2BDaughter;fontSize=20;verticalAlign=top;" parent="1" vertex="1">
          <mxGeometry x="170" y="2270" width="365" height="100" as="geometry" />
        </mxCell>
        <mxCell id="0eBBz7cHZ5j_ymaUO_Qw-78" value="SEGMENT" style="rounded=0;whiteSpace=wrap;html=1;sketch=1;hachureGap=4;jiggle=2;curveFitting=1;fontFamily=Architects Daughter;fontSource=https%3A%2F%2Ffonts.googleapis.com%2Fcss%3Ffamily%3DArchitects%2BDaughter;fontSize=20;verticalAlign=top;" parent="1" vertex="1">
          <mxGeometry x="170" y="2400" width="365" height="100" as="geometry" />
        </mxCell>
        <mxCell id="0eBBz7cHZ5j_ymaUO_Qw-79" value="0" style="text;html=1;align=center;verticalAlign=middle;resizable=0;points=[];autosize=1;strokeColor=none;fillColor=none;fontSize=20;fontFamily=Architects Daughter;" parent="1" vertex="1">
          <mxGeometry x="190" y="2040" width="40" height="40" as="geometry" />
        </mxCell>
        <mxCell id="0eBBz7cHZ5j_ymaUO_Qw-80" value="1" style="text;html=1;align=center;verticalAlign=middle;resizable=0;points=[];autosize=1;strokeColor=none;fillColor=none;fontSize=20;fontFamily=Architects Daughter;" parent="1" vertex="1">
          <mxGeometry x="265" y="2040" width="30" height="40" as="geometry" />
        </mxCell>
        <mxCell id="0eBBz7cHZ5j_ymaUO_Qw-81" value="2" style="text;html=1;align=center;verticalAlign=middle;resizable=0;points=[];autosize=1;strokeColor=none;fillColor=none;fontSize=20;fontFamily=Architects Daughter;" parent="1" vertex="1">
          <mxGeometry x="330" y="2050" width="30" height="40" as="geometry" />
        </mxCell>
        <mxCell id="0eBBz7cHZ5j_ymaUO_Qw-82" value="OFFSET INX" style="rounded=0;whiteSpace=wrap;html=1;sketch=1;hachureGap=4;jiggle=2;curveFitting=1;fontFamily=Architects Daughter;fontSource=https%3A%2F%2Ffonts.googleapis.com%2Fcss%3Ffamily%3DArchitects%2BDaughter;fontSize=20;" parent="1" vertex="1">
          <mxGeometry x="550" y="2030" width="120" height="40" as="geometry" />
        </mxCell>
        <mxCell id="0eBBz7cHZ5j_ymaUO_Qw-83" value="TIME INX" style="rounded=0;whiteSpace=wrap;html=1;sketch=1;hachureGap=4;jiggle=2;curveFitting=1;fontFamily=Architects Daughter;fontSource=https%3A%2F%2Ffonts.googleapis.com%2Fcss%3Ffamily%3DArchitects%2BDaughter;fontSize=20;" parent="1" vertex="1">
          <mxGeometry x="550" y="2090" width="120" height="40" as="geometry" />
        </mxCell>
        <mxCell id="0eBBz7cHZ5j_ymaUO_Qw-84" value="Ack&lt;br&gt;0&lt;br&gt;1&lt;br&gt;ALL" style="text;html=1;align=center;verticalAlign=middle;resizable=0;points=[];autosize=1;strokeColor=none;fillColor=none;fontSize=20;fontFamily=Architects Daughter;" parent="1" vertex="1">
          <mxGeometry x="140" y="1440" width="60" height="110" as="geometry" />
        </mxCell>
        <mxCell id="0eBBz7cHZ5j_ymaUO_Qw-85" value="BROKER" style="text;html=1;align=center;verticalAlign=middle;resizable=0;points=[];autosize=1;strokeColor=none;fillColor=none;fontSize=20;fontFamily=Architects Daughter;" parent="1" vertex="1">
          <mxGeometry x="540" y="1710" width="100" height="40" as="geometry" />
        </mxCell>
        <mxCell id="0eBBz7cHZ5j_ymaUO_Qw-86" value="Retry&lt;br&gt;" style="text;html=1;align=center;verticalAlign=middle;resizable=0;points=[];autosize=1;strokeColor=none;fillColor=none;fontSize=20;fontFamily=Architects Daughter;" parent="1" vertex="1">
          <mxGeometry y="1605" width="80" height="40" as="geometry" />
        </mxCell>
        <mxCell id="0eBBz7cHZ5j_ymaUO_Qw-92" style="edgeStyle=orthogonalEdgeStyle;rounded=0;sketch=1;hachureGap=4;jiggle=2;curveFitting=1;orthogonalLoop=1;jettySize=auto;html=1;exitX=0;exitY=0.5;exitDx=0;exitDy=0;entryX=1;entryY=0.5;entryDx=0;entryDy=0;fontFamily=Architects Daughter;fontSource=https%3A%2F%2Ffonts.googleapis.com%2Fcss%3Ffamily%3DArchitects%2BDaughter;fontSize=16;" parent="1" source="0eBBz7cHZ5j_ymaUO_Qw-87" target="0eBBz7cHZ5j_ymaUO_Qw-67" edge="1">
          <mxGeometry relative="1" as="geometry" />
        </mxCell>
        <mxCell id="0eBBz7cHZ5j_ymaUO_Qw-87" value="CONSUMER" style="rounded=0;whiteSpace=wrap;html=1;sketch=1;hachureGap=4;jiggle=2;curveFitting=1;fontFamily=Architects Daughter;fontSource=https%3A%2F%2Ffonts.googleapis.com%2Fcss%3Ffamily%3DArchitects%2BDaughter;fontSize=20;" parent="1" vertex="1">
          <mxGeometry x="790" y="1530" width="120" height="60" as="geometry" />
        </mxCell>
        <mxCell id="0eBBz7cHZ5j_ymaUO_Qw-96" style="edgeStyle=orthogonalEdgeStyle;rounded=0;sketch=1;hachureGap=4;jiggle=2;curveFitting=1;orthogonalLoop=1;jettySize=auto;html=1;exitX=0;exitY=0.5;exitDx=0;exitDy=0;entryX=1;entryY=0.5;entryDx=0;entryDy=0;fontFamily=Architects Daughter;fontSource=https%3A%2F%2Ffonts.googleapis.com%2Fcss%3Ffamily%3DArchitects%2BDaughter;fontSize=16;" parent="1" source="0eBBz7cHZ5j_ymaUO_Qw-90" target="0eBBz7cHZ5j_ymaUO_Qw-69" edge="1">
          <mxGeometry relative="1" as="geometry" />
        </mxCell>
        <mxCell id="0eBBz7cHZ5j_ymaUO_Qw-90" value="CONSUMER" style="rounded=0;whiteSpace=wrap;html=1;sketch=1;hachureGap=4;jiggle=2;curveFitting=1;fontFamily=Architects Daughter;fontSource=https%3A%2F%2Ffonts.googleapis.com%2Fcss%3Ffamily%3DArchitects%2BDaughter;fontSize=20;" parent="1" vertex="1">
          <mxGeometry x="790" y="1610" width="120" height="60" as="geometry" />
        </mxCell>
        <mxCell id="0eBBz7cHZ5j_ymaUO_Qw-91" value="TOPIC-A" style="text;html=1;align=center;verticalAlign=middle;resizable=0;points=[];autosize=1;strokeColor=none;fillColor=none;fontSize=20;fontFamily=Architects Daughter;" parent="1" vertex="1">
          <mxGeometry x="810" y="1440" width="100" height="40" as="geometry" />
        </mxCell>
        <mxCell id="0eBBz7cHZ5j_ymaUO_Qw-97" style="edgeStyle=orthogonalEdgeStyle;rounded=0;sketch=1;hachureGap=4;jiggle=2;curveFitting=1;orthogonalLoop=1;jettySize=auto;html=1;exitX=0;exitY=0.5;exitDx=0;exitDy=0;entryX=1;entryY=0.5;entryDx=0;entryDy=0;fontFamily=Architects Daughter;fontSource=https%3A%2F%2Ffonts.googleapis.com%2Fcss%3Ffamily%3DArchitects%2BDaughter;fontSize=16;" parent="1" source="0eBBz7cHZ5j_ymaUO_Qw-95" target="0eBBz7cHZ5j_ymaUO_Qw-70" edge="1">
          <mxGeometry relative="1" as="geometry" />
        </mxCell>
        <mxCell id="0eBBz7cHZ5j_ymaUO_Qw-95" value="CONSUMER" style="rounded=0;whiteSpace=wrap;html=1;sketch=1;hachureGap=4;jiggle=2;curveFitting=1;fontFamily=Architects Daughter;fontSource=https%3A%2F%2Ffonts.googleapis.com%2Fcss%3Ffamily%3DArchitects%2BDaughter;fontSize=20;" parent="1" vertex="1">
          <mxGeometry x="790" y="1690" width="120" height="60" as="geometry" />
        </mxCell>
        <mxCell id="0eBBz7cHZ5j_ymaUO_Qw-98" value="CONSUMER" style="rounded=0;whiteSpace=wrap;html=1;sketch=1;hachureGap=4;jiggle=2;curveFitting=1;fontFamily=Architects Daughter;fontSource=https%3A%2F%2Ffonts.googleapis.com%2Fcss%3Ffamily%3DArchitects%2BDaughter;fontSize=20;" parent="1" vertex="1">
          <mxGeometry x="790" y="1770" width="120" height="60" as="geometry" />
        </mxCell>
        <mxCell id="0eBBz7cHZ5j_ymaUO_Qw-101" value="Current Offset&amp;nbsp;" style="text;html=1;strokeColor=none;fillColor=none;align=center;verticalAlign=middle;whiteSpace=wrap;rounded=0;fontSize=20;fontFamily=Architects Daughter;" parent="1" vertex="1">
          <mxGeometry x="550" y="1490" width="60" height="30" as="geometry" />
        </mxCell>
        <mxCell id="0eBBz7cHZ5j_ymaUO_Qw-102" value="earliest&lt;br&gt;latest&lt;br&gt;" style="text;html=1;align=center;verticalAlign=middle;resizable=0;points=[];autosize=1;strokeColor=none;fillColor=none;fontSize=20;fontFamily=Architects Daughter;" parent="1" vertex="1">
          <mxGeometry x="915" y="1530" width="90" height="60" as="geometry" />
        </mxCell>
        <mxCell id="0eBBz7cHZ5j_ymaUO_Qw-103" value="" style="rounded=0;whiteSpace=wrap;html=1;sketch=1;hachureGap=4;jiggle=2;curveFitting=1;fontFamily=Architects Daughter;fontSource=https%3A%2F%2Ffonts.googleapis.com%2Fcss%3Ffamily%3DArchitects%2BDaughter;fontSize=20;" parent="1" vertex="1">
          <mxGeometry x="910" y="1960" width="740" height="80" as="geometry" />
        </mxCell>
        <mxCell id="0eBBz7cHZ5j_ymaUO_Qw-104" value="0" style="rounded=0;whiteSpace=wrap;html=1;sketch=1;hachureGap=4;jiggle=2;curveFitting=1;fontFamily=Architects Daughter;fontSource=https%3A%2F%2Ffonts.googleapis.com%2Fcss%3Ffamily%3DArchitects%2BDaughter;fontSize=20;" parent="1" vertex="1">
          <mxGeometry x="930" y="1970" width="60" height="60" as="geometry" />
        </mxCell>
        <mxCell id="0eBBz7cHZ5j_ymaUO_Qw-105" value="1" style="rounded=0;whiteSpace=wrap;html=1;sketch=1;hachureGap=4;jiggle=2;curveFitting=1;fontFamily=Architects Daughter;fontSource=https%3A%2F%2Ffonts.googleapis.com%2Fcss%3Ffamily%3DArchitects%2BDaughter;fontSize=20;" parent="1" vertex="1">
          <mxGeometry x="1020" y="1970" width="60" height="60" as="geometry" />
        </mxCell>
        <mxCell id="0eBBz7cHZ5j_ymaUO_Qw-106" value="2" style="rounded=0;whiteSpace=wrap;html=1;sketch=1;hachureGap=4;jiggle=2;curveFitting=1;fontFamily=Architects Daughter;fontSource=https%3A%2F%2Ffonts.googleapis.com%2Fcss%3Ffamily%3DArchitects%2BDaughter;fontSize=20;" parent="1" vertex="1">
          <mxGeometry x="1110" y="1970" width="60" height="60" as="geometry" />
        </mxCell>
        <mxCell id="0eBBz7cHZ5j_ymaUO_Qw-107" value="3" style="rounded=0;whiteSpace=wrap;html=1;sketch=1;hachureGap=4;jiggle=2;curveFitting=1;fontFamily=Architects Daughter;fontSource=https%3A%2F%2Ffonts.googleapis.com%2Fcss%3Ffamily%3DArchitects%2BDaughter;fontSize=20;" parent="1" vertex="1">
          <mxGeometry x="1200" y="1970" width="60" height="60" as="geometry" />
        </mxCell>
        <mxCell id="0eBBz7cHZ5j_ymaUO_Qw-108" value="4" style="rounded=0;whiteSpace=wrap;html=1;sketch=1;hachureGap=4;jiggle=2;curveFitting=1;fontFamily=Architects Daughter;fontSource=https%3A%2F%2Ffonts.googleapis.com%2Fcss%3Ffamily%3DArchitects%2BDaughter;fontSize=20;" parent="1" vertex="1">
          <mxGeometry x="1290" y="1970" width="60" height="60" as="geometry" />
        </mxCell>
        <mxCell id="0eBBz7cHZ5j_ymaUO_Qw-109" value="ACK" style="text;html=1;align=center;verticalAlign=middle;resizable=0;points=[];autosize=1;strokeColor=none;fillColor=none;fontSize=20;fontFamily=Architects Daughter;" parent="1" vertex="1">
          <mxGeometry x="1020" y="1903" width="60" height="40" as="geometry" />
        </mxCell>
        <mxCell id="0eBBz7cHZ5j_ymaUO_Qw-110" value="ACK" style="text;html=1;align=center;verticalAlign=middle;resizable=0;points=[];autosize=1;strokeColor=none;fillColor=none;fontSize=20;fontFamily=Architects Daughter;" parent="1" vertex="1">
          <mxGeometry x="1200" y="1903" width="60" height="40" as="geometry" />
        </mxCell>
        <mxCell id="0eBBz7cHZ5j_ymaUO_Qw-111" value="5" style="rounded=0;whiteSpace=wrap;html=1;sketch=1;hachureGap=4;jiggle=2;curveFitting=1;fontFamily=Architects Daughter;fontSource=https%3A%2F%2Ffonts.googleapis.com%2Fcss%3Ffamily%3DArchitects%2BDaughter;fontSize=20;" parent="1" vertex="1">
          <mxGeometry x="1370" y="1970" width="60" height="60" as="geometry" />
        </mxCell>
        <mxCell id="0eBBz7cHZ5j_ymaUO_Qw-112" value="" style="rounded=0;whiteSpace=wrap;html=1;sketch=1;hachureGap=4;jiggle=2;curveFitting=1;fontFamily=Architects Daughter;fontSource=https%3A%2F%2Ffonts.googleapis.com%2Fcss%3Ffamily%3DArchitects%2BDaughter;fontSize=20;" parent="1" vertex="1">
          <mxGeometry x="-560" y="1510" width="450" height="390" as="geometry" />
        </mxCell>
        <mxCell id="0eBBz7cHZ5j_ymaUO_Qw-113" value="PRODUCER" style="rounded=0;whiteSpace=wrap;html=1;sketch=1;hachureGap=4;jiggle=2;curveFitting=1;fontFamily=Architects Daughter;fontSource=https%3A%2F%2Ffonts.googleapis.com%2Fcss%3Ffamily%3DArchitects%2BDaughter;fontSize=20;" parent="1" vertex="1">
          <mxGeometry x="-800" y="1645" width="120" height="60" as="geometry" />
        </mxCell>
        <mxCell id="0eBBz7cHZ5j_ymaUO_Qw-115" style="edgeStyle=orthogonalEdgeStyle;rounded=0;sketch=1;hachureGap=4;jiggle=2;curveFitting=1;orthogonalLoop=1;jettySize=auto;html=1;exitX=1;exitY=0.5;exitDx=0;exitDy=0;entryX=-0.001;entryY=0.421;entryDx=0;entryDy=0;entryPerimeter=0;fontFamily=Architects Daughter;fontSource=https%3A%2F%2Ffonts.googleapis.com%2Fcss%3Ffamily%3DArchitects%2BDaughter;fontSize=16;" parent="1" source="0eBBz7cHZ5j_ymaUO_Qw-113" target="0eBBz7cHZ5j_ymaUO_Qw-112" edge="1">
          <mxGeometry relative="1" as="geometry" />
        </mxCell>
        <mxCell id="0eBBz7cHZ5j_ymaUO_Qw-118" style="edgeStyle=orthogonalEdgeStyle;rounded=0;sketch=1;hachureGap=4;jiggle=2;curveFitting=1;orthogonalLoop=1;jettySize=auto;html=1;exitX=0;exitY=0.5;exitDx=0;exitDy=0;fontFamily=Architects Daughter;fontSource=https%3A%2F%2Ffonts.googleapis.com%2Fcss%3Ffamily%3DArchitects%2BDaughter;fontSize=16;endArrow=none;endFill=0;startArrow=classic;startFill=1;" parent="1" source="0eBBz7cHZ5j_ymaUO_Qw-116" edge="1">
          <mxGeometry relative="1" as="geometry">
            <mxPoint x="-560" y="1650" as="targetPoint" />
          </mxGeometry>
        </mxCell>
        <mxCell id="0eBBz7cHZ5j_ymaUO_Qw-120" style="edgeStyle=orthogonalEdgeStyle;rounded=0;sketch=1;hachureGap=4;jiggle=2;curveFitting=1;orthogonalLoop=1;jettySize=auto;html=1;exitX=1;exitY=0.5;exitDx=0;exitDy=0;fontFamily=Architects Daughter;fontSource=https%3A%2F%2Ffonts.googleapis.com%2Fcss%3Ffamily%3DArchitects%2BDaughter;fontSize=16;" parent="1" source="0eBBz7cHZ5j_ymaUO_Qw-116" target="0eBBz7cHZ5j_ymaUO_Qw-119" edge="1">
          <mxGeometry relative="1" as="geometry" />
        </mxCell>
        <mxCell id="0eBBz7cHZ5j_ymaUO_Qw-123" style="edgeStyle=orthogonalEdgeStyle;rounded=0;sketch=1;hachureGap=4;jiggle=2;curveFitting=1;orthogonalLoop=1;jettySize=auto;html=1;exitX=1;exitY=0.75;exitDx=0;exitDy=0;fontFamily=Architects Daughter;fontSource=https%3A%2F%2Ffonts.googleapis.com%2Fcss%3Ffamily%3DArchitects%2BDaughter;fontSize=16;" parent="1" source="0eBBz7cHZ5j_ymaUO_Qw-116" target="0eBBz7cHZ5j_ymaUO_Qw-121" edge="1">
          <mxGeometry relative="1" as="geometry" />
        </mxCell>
        <mxCell id="0eBBz7cHZ5j_ymaUO_Qw-124" style="edgeStyle=orthogonalEdgeStyle;rounded=0;sketch=1;hachureGap=4;jiggle=2;curveFitting=1;orthogonalLoop=1;jettySize=auto;html=1;exitX=0.75;exitY=1;exitDx=0;exitDy=0;entryX=0;entryY=0.5;entryDx=0;entryDy=0;fontFamily=Architects Daughter;fontSource=https%3A%2F%2Ffonts.googleapis.com%2Fcss%3Ffamily%3DArchitects%2BDaughter;fontSize=16;" parent="1" source="0eBBz7cHZ5j_ymaUO_Qw-116" target="0eBBz7cHZ5j_ymaUO_Qw-122" edge="1">
          <mxGeometry relative="1" as="geometry" />
        </mxCell>
        <mxCell id="0eBBz7cHZ5j_ymaUO_Qw-116" value="PARTIONER" style="rounded=0;whiteSpace=wrap;html=1;sketch=1;hachureGap=4;jiggle=2;curveFitting=1;fontFamily=Architects Daughter;fontSource=https%3A%2F%2Ffonts.googleapis.com%2Fcss%3Ffamily%3DArchitects%2BDaughter;fontSize=20;" parent="1" vertex="1">
          <mxGeometry x="-510" y="1620" width="120" height="60" as="geometry" />
        </mxCell>
        <mxCell id="0eBBz7cHZ5j_ymaUO_Qw-117" value="M1" style="rounded=0;whiteSpace=wrap;html=1;sketch=1;hachureGap=4;jiggle=2;curveFitting=1;fontFamily=Architects Daughter;fontSource=https%3A%2F%2Ffonts.googleapis.com%2Fcss%3Ffamily%3DArchitects%2BDaughter;fontSize=20;" parent="1" vertex="1">
          <mxGeometry x="-640" y="1620" width="40" height="40" as="geometry" />
        </mxCell>
        <mxCell id="0eBBz7cHZ5j_ymaUO_Qw-119" value="P0" style="rounded=0;whiteSpace=wrap;html=1;sketch=1;hachureGap=4;jiggle=2;curveFitting=1;fontFamily=Architects Daughter;fontSource=https%3A%2F%2Ffonts.googleapis.com%2Fcss%3Ffamily%3DArchitects%2BDaughter;fontSize=20;verticalAlign=top;" parent="1" vertex="1">
          <mxGeometry x="-350" y="1535" width="170" height="105" as="geometry" />
        </mxCell>
        <mxCell id="0eBBz7cHZ5j_ymaUO_Qw-121" value="P1" style="rounded=0;whiteSpace=wrap;html=1;sketch=1;hachureGap=4;jiggle=2;curveFitting=1;fontFamily=Architects Daughter;fontSource=https%3A%2F%2Ffonts.googleapis.com%2Fcss%3Ffamily%3DArchitects%2BDaughter;fontSize=20;verticalAlign=top;" parent="1" vertex="1">
          <mxGeometry x="-350" y="1650" width="170" height="105" as="geometry" />
        </mxCell>
        <mxCell id="0eBBz7cHZ5j_ymaUO_Qw-122" value="P2" style="rounded=0;whiteSpace=wrap;html=1;sketch=1;hachureGap=4;jiggle=2;curveFitting=1;fontFamily=Architects Daughter;fontSource=https%3A%2F%2Ffonts.googleapis.com%2Fcss%3Ffamily%3DArchitects%2BDaughter;fontSize=20;verticalAlign=top;" parent="1" vertex="1">
          <mxGeometry x="-349" y="1765" width="170" height="105" as="geometry" />
        </mxCell>
        <mxCell id="0eBBz7cHZ5j_ymaUO_Qw-125" value="key" style="text;html=1;align=center;verticalAlign=middle;resizable=0;points=[];autosize=1;strokeColor=none;fillColor=none;fontSize=20;fontFamily=Architects Daughter;" parent="1" vertex="1">
          <mxGeometry x="-650" y="1580" width="60" height="40" as="geometry" />
        </mxCell>
        <mxCell id="0eBBz7cHZ5j_ymaUO_Qw-126" value="CLUSTER" style="whiteSpace=wrap;html=1;aspect=fixed;sketch=1;hachureGap=4;jiggle=2;curveFitting=1;fontFamily=Architects Daughter;fontSource=https%3A%2F%2Ffonts.googleapis.com%2Fcss%3Ffamily%3DArchitects%2BDaughter;fontSize=20;verticalAlign=top;" parent="1" vertex="1">
          <mxGeometry x="32.5" y="2660" width="1180" height="1180" as="geometry" />
        </mxCell>
        <mxCell id="0eBBz7cHZ5j_ymaUO_Qw-127" value="BROKER 1" style="whiteSpace=wrap;html=1;aspect=fixed;sketch=1;hachureGap=4;jiggle=2;curveFitting=1;fontFamily=Architects Daughter;fontSource=https%3A%2F%2Ffonts.googleapis.com%2Fcss%3Ffamily%3DArchitects%2BDaughter;fontSize=20;horizontal=1;verticalAlign=top;" parent="1" vertex="1">
          <mxGeometry x="130" y="2760" width="400" height="400" as="geometry" />
        </mxCell>
        <mxCell id="0eBBz7cHZ5j_ymaUO_Qw-128" value="BROKER 2" style="whiteSpace=wrap;html=1;aspect=fixed;sketch=1;hachureGap=4;jiggle=2;curveFitting=1;fontFamily=Architects Daughter;fontSource=https%3A%2F%2Ffonts.googleapis.com%2Fcss%3Ffamily%3DArchitects%2BDaughter;fontSize=20;horizontal=1;verticalAlign=top;" parent="1" vertex="1">
          <mxGeometry x="650" y="2760" width="400" height="400" as="geometry" />
        </mxCell>
        <mxCell id="0eBBz7cHZ5j_ymaUO_Qw-129" value="BROKER 3" style="whiteSpace=wrap;html=1;aspect=fixed;sketch=1;hachureGap=4;jiggle=2;curveFitting=1;fontFamily=Architects Daughter;fontSource=https%3A%2F%2Ffonts.googleapis.com%2Fcss%3Ffamily%3DArchitects%2BDaughter;fontSize=20;horizontal=1;verticalAlign=top;" parent="1" vertex="1">
          <mxGeometry x="135" y="3240" width="400" height="400" as="geometry" />
        </mxCell>
        <mxCell id="0eBBz7cHZ5j_ymaUO_Qw-130" value="BROKER 4" style="whiteSpace=wrap;html=1;aspect=fixed;sketch=1;hachureGap=4;jiggle=2;curveFitting=1;fontFamily=Architects Daughter;fontSource=https%3A%2F%2Ffonts.googleapis.com%2Fcss%3Ffamily%3DArchitects%2BDaughter;fontSize=20;horizontal=1;verticalAlign=top;" parent="1" vertex="1">
          <mxGeometry x="660" y="3230" width="400" height="400" as="geometry" />
        </mxCell>
        <mxCell id="0eBBz7cHZ5j_ymaUO_Qw-131" value="TOPIC" style="rounded=0;whiteSpace=wrap;html=1;sketch=1;hachureGap=4;jiggle=2;curveFitting=1;fontFamily=Architects Daughter;fontSource=https%3A%2F%2Ffonts.googleapis.com%2Fcss%3Ffamily%3DArchitects%2BDaughter;fontSize=20;verticalAlign=top;" parent="1" vertex="1">
          <mxGeometry x="180" y="2840" width="200" height="230" as="geometry" />
        </mxCell>
        <mxCell id="0eBBz7cHZ5j_ymaUO_Qw-132" value="TOPIC" style="rounded=0;whiteSpace=wrap;html=1;sketch=1;hachureGap=4;jiggle=2;curveFitting=1;fontFamily=Architects Daughter;fontSource=https%3A%2F%2Ffonts.googleapis.com%2Fcss%3Ffamily%3DArchitects%2BDaughter;fontSize=20;verticalAlign=top;" parent="1" vertex="1">
          <mxGeometry x="715" y="2820" width="200" height="230" as="geometry" />
        </mxCell>
        <mxCell id="0eBBz7cHZ5j_ymaUO_Qw-133" value="TOPIC" style="rounded=0;whiteSpace=wrap;html=1;sketch=1;hachureGap=4;jiggle=2;curveFitting=1;fontFamily=Architects Daughter;fontSource=https%3A%2F%2Ffonts.googleapis.com%2Fcss%3Ffamily%3DArchitects%2BDaughter;fontSize=20;verticalAlign=top;" parent="1" vertex="1">
          <mxGeometry x="180" y="3300" width="200" height="230" as="geometry" />
        </mxCell>
        <mxCell id="0eBBz7cHZ5j_ymaUO_Qw-134" value="TOPIC" style="rounded=0;whiteSpace=wrap;html=1;sketch=1;hachureGap=4;jiggle=2;curveFitting=1;fontFamily=Architects Daughter;fontSource=https%3A%2F%2Ffonts.googleapis.com%2Fcss%3Ffamily%3DArchitects%2BDaughter;fontSize=20;verticalAlign=top;" parent="1" vertex="1">
          <mxGeometry x="700" y="3300" width="200" height="230" as="geometry" />
        </mxCell>
        <mxCell id="0eBBz7cHZ5j_ymaUO_Qw-135" value="PARTITION 1" style="rounded=0;whiteSpace=wrap;html=1;sketch=1;hachureGap=4;jiggle=2;curveFitting=1;fontFamily=Architects Daughter;fontSource=https%3A%2F%2Ffonts.googleapis.com%2Fcss%3Ffamily%3DArchitects%2BDaughter;fontSize=20;fillColor=#0050ef;fontColor=#ffffff;strokeColor=#001DBC;" parent="1" vertex="1">
          <mxGeometry x="200" y="2890" width="120" height="20" as="geometry" />
        </mxCell>
        <mxCell id="0eBBz7cHZ5j_ymaUO_Qw-136" value="PARTITION 2" style="rounded=0;whiteSpace=wrap;html=1;sketch=1;hachureGap=4;jiggle=2;curveFitting=1;fontFamily=Architects Daughter;fontSource=https%3A%2F%2Ffonts.googleapis.com%2Fcss%3Ffamily%3DArchitects%2BDaughter;fontSize=20;fillColor=#0050ef;fontColor=#ffffff;strokeColor=#001DBC;" parent="1" vertex="1">
          <mxGeometry x="730" y="2925" width="120" height="20" as="geometry" />
        </mxCell>
        <mxCell id="0eBBz7cHZ5j_ymaUO_Qw-137" value="PARTITION 3" style="rounded=0;whiteSpace=wrap;html=1;sketch=1;hachureGap=4;jiggle=2;curveFitting=1;fontFamily=Architects Daughter;fontSource=https%3A%2F%2Ffonts.googleapis.com%2Fcss%3Ffamily%3DArchitects%2BDaughter;fontSize=20;fillColor=#d80073;fontColor=#ffffff;strokeColor=#A50040;" parent="1" vertex="1">
          <mxGeometry x="200" y="2925" width="120" height="20" as="geometry" />
        </mxCell>
        <mxCell id="0eBBz7cHZ5j_ymaUO_Qw-138" value="PARTITION 1" style="rounded=0;whiteSpace=wrap;html=1;sketch=1;hachureGap=4;jiggle=2;curveFitting=1;fontFamily=Architects Daughter;fontSource=https%3A%2F%2Ffonts.googleapis.com%2Fcss%3Ffamily%3DArchitects%2BDaughter;fontSize=20;fillColor=#d80073;fontColor=#ffffff;strokeColor=#A50040;" parent="1" vertex="1">
          <mxGeometry x="730" y="2880" width="120" height="20" as="geometry" />
        </mxCell>
        <mxCell id="0eBBz7cHZ5j_ymaUO_Qw-139" value="PARTITION 1" style="rounded=0;whiteSpace=wrap;html=1;sketch=1;hachureGap=4;jiggle=2;curveFitting=1;fontFamily=Architects Daughter;fontSource=https%3A%2F%2Ffonts.googleapis.com%2Fcss%3Ffamily%3DArchitects%2BDaughter;fontSize=20;fillColor=#d80073;fontColor=#ffffff;strokeColor=#A50040;" parent="1" vertex="1">
          <mxGeometry x="210" y="3350" width="120" height="20" as="geometry" />
        </mxCell>
        <mxCell id="0eBBz7cHZ5j_ymaUO_Qw-140" value="PARTITION 2" style="rounded=0;whiteSpace=wrap;html=1;sketch=1;hachureGap=4;jiggle=2;curveFitting=1;fontFamily=Architects Daughter;fontSource=https%3A%2F%2Ffonts.googleapis.com%2Fcss%3Ffamily%3DArchitects%2BDaughter;fontSize=20;fillColor=#d80073;fontColor=#ffffff;strokeColor=#A50040;" parent="1" vertex="1">
          <mxGeometry x="210" y="3390" width="120" height="20" as="geometry" />
        </mxCell>
        <mxCell id="0eBBz7cHZ5j_ymaUO_Qw-141" value="PARTITION 2" style="rounded=0;whiteSpace=wrap;html=1;sketch=1;hachureGap=4;jiggle=2;curveFitting=1;fontFamily=Architects Daughter;fontSource=https%3A%2F%2Ffonts.googleapis.com%2Fcss%3Ffamily%3DArchitects%2BDaughter;fontSize=20;fillColor=#d80073;fontColor=#ffffff;strokeColor=#A50040;" parent="1" vertex="1">
          <mxGeometry x="720" y="3350" width="120" height="20" as="geometry" />
        </mxCell>
        <mxCell id="0eBBz7cHZ5j_ymaUO_Qw-142" value="PARTITION 3" style="rounded=0;whiteSpace=wrap;html=1;sketch=1;hachureGap=4;jiggle=2;curveFitting=1;fontFamily=Architects Daughter;fontSource=https%3A%2F%2Ffonts.googleapis.com%2Fcss%3Ffamily%3DArchitects%2BDaughter;fontSize=20;fillColor=#0050ef;fontColor=#ffffff;strokeColor=#001DBC;" parent="1" vertex="1">
          <mxGeometry x="720" y="3390" width="120" height="20" as="geometry" />
        </mxCell>
        <mxCell id="0eBBz7cHZ5j_ymaUO_Qw-144" value="PARTITION 3" style="rounded=0;whiteSpace=wrap;html=1;sketch=1;hachureGap=4;jiggle=2;curveFitting=1;fontFamily=Architects Daughter;fontSource=https%3A%2F%2Ffonts.googleapis.com%2Fcss%3Ffamily%3DArchitects%2BDaughter;fontSize=20;fillColor=#d80073;fontColor=#ffffff;strokeColor=#A50040;" parent="1" vertex="1">
          <mxGeometry x="730" y="2970" width="120" height="20" as="geometry" />
        </mxCell>
        <mxCell id="0eBBz7cHZ5j_ymaUO_Qw-145" value="ZOOKEEPER" style="rounded=0;whiteSpace=wrap;html=1;sketch=1;hachureGap=4;jiggle=2;curveFitting=1;fontFamily=Architects Daughter;fontSource=https%3A%2F%2Ffonts.googleapis.com%2Fcss%3Ffamily%3DArchitects%2BDaughter;fontSize=20;" parent="1" vertex="1">
          <mxGeometry x="-590" y="2710" width="270" height="130" as="geometry" />
        </mxCell>
        <mxCell id="0eBBz7cHZ5j_ymaUO_Qw-146" value="ZOOKEEPER" style="rounded=0;whiteSpace=wrap;html=1;sketch=1;hachureGap=4;jiggle=2;curveFitting=1;fontFamily=Architects Daughter;fontSource=https%3A%2F%2Ffonts.googleapis.com%2Fcss%3Ffamily%3DArchitects%2BDaughter;fontSize=20;" parent="1" vertex="1">
          <mxGeometry x="-590" y="2890" width="270" height="130" as="geometry" />
        </mxCell>
        <mxCell id="0eBBz7cHZ5j_ymaUO_Qw-147" value="ZOOKEEPER" style="rounded=0;whiteSpace=wrap;html=1;sketch=1;hachureGap=4;jiggle=2;curveFitting=1;fontFamily=Architects Daughter;fontSource=https%3A%2F%2Ffonts.googleapis.com%2Fcss%3Ffamily%3DArchitects%2BDaughter;fontSize=20;" parent="1" vertex="1">
          <mxGeometry x="-590" y="3080" width="270" height="130" as="geometry" />
        </mxCell>
        <mxCell id="0eBBz7cHZ5j_ymaUO_Qw-148" value="CONTROLLER" style="text;html=1;align=center;verticalAlign=middle;resizable=0;points=[];autosize=1;strokeColor=none;fillColor=none;fontSize=20;fontFamily=Architects Daughter;" parent="1" vertex="1">
          <mxGeometry x="230" y="2710" width="160" height="40" as="geometry" />
        </mxCell>
        <mxCell id="0eBBz7cHZ5j_ymaUO_Qw-149" value="Leader" style="text;html=1;strokeColor=none;fillColor=none;align=center;verticalAlign=middle;whiteSpace=wrap;rounded=0;fontSize=20;fontFamily=Architects Daughter;" parent="1" vertex="1">
          <mxGeometry x="1480" y="3010" width="60" height="30" as="geometry" />
        </mxCell>
        <mxCell id="0eBBz7cHZ5j_ymaUO_Qw-150" value="FollowerA" style="text;html=1;strokeColor=none;fillColor=none;align=center;verticalAlign=middle;whiteSpace=wrap;rounded=0;fontSize=20;fontFamily=Architects Daughter;" parent="1" vertex="1">
          <mxGeometry x="1650" y="3050" width="60" height="30" as="geometry" />
        </mxCell>
        <mxCell id="0eBBz7cHZ5j_ymaUO_Qw-151" value="FollowerB" style="text;html=1;strokeColor=none;fillColor=none;align=center;verticalAlign=middle;whiteSpace=wrap;rounded=0;fontSize=20;fontFamily=Architects Daughter;" parent="1" vertex="1">
          <mxGeometry x="1650" y="3129" width="60" height="30" as="geometry" />
        </mxCell>
        <mxCell id="0eBBz7cHZ5j_ymaUO_Qw-154" value="M" style="rounded=0;whiteSpace=wrap;html=1;sketch=1;hachureGap=4;jiggle=2;curveFitting=1;fontFamily=Architects Daughter;fontSource=https%3A%2F%2Ffonts.googleapis.com%2Fcss%3Ffamily%3DArchitects%2BDaughter;fontSize=20;" parent="1" vertex="1">
          <mxGeometry x="1440" y="2970" width="40" height="40" as="geometry" />
        </mxCell>
        <mxCell id="0eBBz7cHZ5j_ymaUO_Qw-155" value="M" style="rounded=0;whiteSpace=wrap;html=1;sketch=1;hachureGap=4;jiggle=2;curveFitting=1;fontFamily=Architects Daughter;fontSource=https%3A%2F%2Ffonts.googleapis.com%2Fcss%3Ffamily%3DArchitects%2BDaughter;fontSize=20;" parent="1" vertex="1">
          <mxGeometry x="1500" y="2970" width="40" height="40" as="geometry" />
        </mxCell>
        <mxCell id="0eBBz7cHZ5j_ymaUO_Qw-156" value="M" style="rounded=0;whiteSpace=wrap;html=1;sketch=1;hachureGap=4;jiggle=2;curveFitting=1;fontFamily=Architects Daughter;fontSource=https%3A%2F%2Ffonts.googleapis.com%2Fcss%3Ffamily%3DArchitects%2BDaughter;fontSize=20;" parent="1" vertex="1">
          <mxGeometry x="1560" y="2970" width="40" height="40" as="geometry" />
        </mxCell>
        <mxCell id="0eBBz7cHZ5j_ymaUO_Qw-157" value="M" style="rounded=0;whiteSpace=wrap;html=1;sketch=1;hachureGap=4;jiggle=2;curveFitting=1;fontFamily=Architects Daughter;fontSource=https%3A%2F%2Ffonts.googleapis.com%2Fcss%3Ffamily%3DArchitects%2BDaughter;fontSize=20;" parent="1" vertex="1">
          <mxGeometry x="1660" y="3010" width="40" height="40" as="geometry" />
        </mxCell>
        <mxCell id="0eBBz7cHZ5j_ymaUO_Qw-158" value="M" style="rounded=0;whiteSpace=wrap;html=1;sketch=1;hachureGap=4;jiggle=2;curveFitting=1;fontFamily=Architects Daughter;fontSource=https%3A%2F%2Ffonts.googleapis.com%2Fcss%3Ffamily%3DArchitects%2BDaughter;fontSize=20;" parent="1" vertex="1">
          <mxGeometry x="1720" y="3010" width="40" height="40" as="geometry" />
        </mxCell>
        <mxCell id="0eBBz7cHZ5j_ymaUO_Qw-159" value="M" style="rounded=0;whiteSpace=wrap;html=1;sketch=1;hachureGap=4;jiggle=2;curveFitting=1;fontFamily=Architects Daughter;fontSource=https%3A%2F%2Ffonts.googleapis.com%2Fcss%3Ffamily%3DArchitects%2BDaughter;fontSize=20;" parent="1" vertex="1">
          <mxGeometry x="1780" y="3010" width="40" height="40" as="geometry" />
        </mxCell>
        <mxCell id="0eBBz7cHZ5j_ymaUO_Qw-163" value="M" style="rounded=0;whiteSpace=wrap;html=1;sketch=1;hachureGap=4;jiggle=2;curveFitting=1;fontFamily=Architects Daughter;fontSource=https%3A%2F%2Ffonts.googleapis.com%2Fcss%3Ffamily%3DArchitects%2BDaughter;fontSize=20;" parent="1" vertex="1">
          <mxGeometry x="1660" y="3090" width="40" height="40" as="geometry" />
        </mxCell>
        <mxCell id="0eBBz7cHZ5j_ymaUO_Qw-164" value="M" style="rounded=0;whiteSpace=wrap;html=1;sketch=1;hachureGap=4;jiggle=2;curveFitting=1;fontFamily=Architects Daughter;fontSource=https%3A%2F%2Ffonts.googleapis.com%2Fcss%3Ffamily%3DArchitects%2BDaughter;fontSize=20;" parent="1" vertex="1">
          <mxGeometry x="1720" y="3090" width="40" height="40" as="geometry" />
        </mxCell>
        <mxCell id="0eBBz7cHZ5j_ymaUO_Qw-165" value="M" style="rounded=0;whiteSpace=wrap;html=1;sketch=1;hachureGap=4;jiggle=2;curveFitting=1;fontFamily=Architects Daughter;fontSource=https%3A%2F%2Ffonts.googleapis.com%2Fcss%3Ffamily%3DArchitects%2BDaughter;fontSize=20;" parent="1" vertex="1">
          <mxGeometry x="1780" y="3090" width="40" height="40" as="geometry" />
        </mxCell>
        <mxCell id="0eBBz7cHZ5j_ymaUO_Qw-166" value="10s" style="text;html=1;align=center;verticalAlign=middle;resizable=0;points=[];autosize=1;strokeColor=none;fillColor=none;fontSize=20;fontFamily=Architects Daughter;" parent="1" vertex="1">
          <mxGeometry x="1490" y="3060" width="50" height="40" as="geometry" />
        </mxCell>
        <mxCell id="cYmgZ-dYzN42dDj_t0c--3" style="edgeStyle=none;curved=1;rounded=0;orthogonalLoop=1;jettySize=auto;html=1;exitX=1;exitY=0.5;exitDx=0;exitDy=0;entryX=0;entryY=0.5;entryDx=0;entryDy=0;endArrow=open;startSize=14;endSize=14;sourcePerimeterSpacing=8;targetPerimeterSpacing=8;" edge="1" parent="1" source="cYmgZ-dYzN42dDj_t0c--1" target="cYmgZ-dYzN42dDj_t0c--2">
          <mxGeometry relative="1" as="geometry" />
        </mxCell>
        <mxCell id="cYmgZ-dYzN42dDj_t0c--1" value="CONSUMER" style="ellipse;whiteSpace=wrap;html=1;aspect=fixed;" vertex="1" parent="1">
          <mxGeometry x="810" y="1270" width="110" height="110" as="geometry" />
        </mxCell>
        <mxCell id="cYmgZ-dYzN42dDj_t0c--2" value="JAVA QUEUE" style="rounded=0;whiteSpace=wrap;html=1;" vertex="1" parent="1">
          <mxGeometry x="1040" y="1230" width="70" height="190" as="geometry" />
        </mxCell>
        <mxCell id="cYmgZ-dYzN42dDj_t0c--4" value="THREAD" style="ellipse;whiteSpace=wrap;html=1;aspect=fixed;" vertex="1" parent="1">
          <mxGeometry x="1120" y="1230" width="80" height="80" as="geometry" />
        </mxCell>
        <mxCell id="cYmgZ-dYzN42dDj_t0c--5" value="THREAD" style="ellipse;whiteSpace=wrap;html=1;aspect=fixed;" vertex="1" parent="1">
          <mxGeometry x="1300" y="1230" width="80" height="80" as="geometry" />
        </mxCell>
        <mxCell id="cYmgZ-dYzN42dDj_t0c--6" value="THREAD" style="ellipse;whiteSpace=wrap;html=1;aspect=fixed;" vertex="1" parent="1">
          <mxGeometry x="1210" y="1360" width="80" height="80" as="geometry" />
        </mxCell>
        <mxCell id="cYmgZ-dYzN42dDj_t0c--7" value="THREAD" style="ellipse;whiteSpace=wrap;html=1;aspect=fixed;" vertex="1" parent="1">
          <mxGeometry x="1210" y="1230" width="80" height="80" as="geometry" />
        </mxCell>
        <mxCell id="cYmgZ-dYzN42dDj_t0c--8" value="THREAD" style="ellipse;whiteSpace=wrap;html=1;aspect=fixed;" vertex="1" parent="1">
          <mxGeometry x="1120" y="1360" width="80" height="80" as="geometry" />
        </mxCell>
        <mxCell id="cYmgZ-dYzN42dDj_t0c--9" value="THREAD" style="ellipse;whiteSpace=wrap;html=1;aspect=fixed;" vertex="1" parent="1">
          <mxGeometry x="1300" y="1360" width="80" height="80" as="geometry" />
        </mxCell>
        <mxCell id="cYmgZ-dYzN42dDj_t0c--10" value="100 message = 2000ms" style="text;html=1;align=center;verticalAlign=middle;resizable=0;points=[];autosize=1;strokeColor=none;fillColor=none;" vertex="1" parent="1">
          <mxGeometry x="785" y="1208" width="150" height="30" as="geometry" />
        </mxCell>
        <mxCell id="cYmgZ-dYzN42dDj_t0c--11" value="100 message=200ms" style="text;html=1;align=center;verticalAlign=middle;resizable=0;points=[];autosize=1;strokeColor=none;fillColor=none;" vertex="1" parent="1">
          <mxGeometry x="990" y="1168" width="140" height="30" as="geometry" />
        </mxCell>
        <mxCell id="cYmgZ-dYzN42dDj_t0c--12" value="THREAD" style="ellipse;whiteSpace=wrap;html=1;aspect=fixed;" vertex="1" parent="1">
          <mxGeometry x="1390" y="1230" width="80" height="80" as="geometry" />
        </mxCell>
        <mxCell id="cYmgZ-dYzN42dDj_t0c--13" value="THREAD" style="ellipse;whiteSpace=wrap;html=1;aspect=fixed;" vertex="1" parent="1">
          <mxGeometry x="1390" y="1360" width="80" height="80" as="geometry" />
        </mxCell>
        <mxCell id="cYmgZ-dYzN42dDj_t0c--14" value="THREAD" style="ellipse;whiteSpace=wrap;html=1;aspect=fixed;" vertex="1" parent="1">
          <mxGeometry x="1490" y="1230" width="80" height="80" as="geometry" />
        </mxCell>
        <mxCell id="cYmgZ-dYzN42dDj_t0c--15" value="THREAD" style="ellipse;whiteSpace=wrap;html=1;aspect=fixed;" vertex="1" parent="1">
          <mxGeometry x="1490" y="1360" width="80" height="80" as="geometry" />
        </mxCell>
        <mxCell id="cYmgZ-dYzN42dDj_t0c--16" value="At least One- Retry = 0 Ack=0&lt;br&gt;At most One- Retry=n Ack=1,all&lt;br&gt;Exactly once&amp;nbsp;enable.idempotence=true" style="text;html=1;align=center;verticalAlign=middle;resizable=0;points=[];autosize=1;strokeColor=none;fillColor=none;" vertex="1" parent="1">
          <mxGeometry x="-245" y="1273" width="230" height="60" as="geometry" />
        </mxCell>
        <mxCell id="cYmgZ-dYzN42dDj_t0c--17" value="ProducerId&lt;br&gt;Sequence" style="whiteSpace=wrap;html=1;" vertex="1" parent="1">
          <mxGeometry x="-20" y="1320" width="90" height="40" as="geometry" />
        </mxCell>
      </root>
    </mxGraphModel>
  </diagram>
</mxfile>
